<svg xmlns="http://www.w3.org/2000/svg" xmlns:xlink="http://www.w3.org/1999/xlink" xmlns:lucid="lucid" width="1700" height="1160"><g transform="translate(-120 -80)" lucid:page-tab-id="0_0"><path d="M1100 186c0-3.3 2.7-6 6-6h168c3.3 0 6 2.7 6 6v948c0 3.3-2.7 6-6 6h-168c-3.3 0-6-2.7-6-6z" fill="#fff" fill-opacity="0"/><path d="M1116.7 180h9.15m6.1 0h9.18m6.1 0h9.17m6.1 0h9.17m6.1 0h9.18m6.1 0h9.17m6.1 0h9.17m6.1 0h9.16m6.1 0h9.18m6.1 0h9.17m6.12 0h4.58l3.03.82 2.15 2.15.82 3.03v4.5m0 6.03v9.03m0 6.02v9.03m0 6.03v9.03m0 6.02v9.02m0 6.02v9.03m0 6.02v9.03m0 6.02v9.03m0 6.02v9.03m0 6v9.04m0 6.02V341m0 6v9.04m0 6.02v9.03m0 6v9.03m0 6.02v9.03m0 6.02v9.03m0 6.02v9.03m0 6.02v9.02m0 6.02v9.03m0 6.02v9.02m0 6.02v9.03m0 6.02v9m0 6.03v9.03m0 6.02v9.03m0 6.03v9.03m0 6.02v9.02m0 6.02v9.03m0 6.02v9.03m0 6.02v9.03m0 6.02v9.03m0 6v9.04m0 6.02V657m0 6v9.04m0 6.02v9.03m0 6v9.03m0 6.02v9.03m0 6.02v9.03m0 6.02v9.03m0 6.02v9.02m0 6.02v9.03m0 6.02v9.02m0 6.02v9.03m0 6.02v9m0 6.03v9.03m0 6.02v9.03m0 6.03v9.03m0 6.02v9.02m0 6.02v9.03m0 6.02v9.03m0 6.02v9.03m0 6.02v9.03m0 6v9.04m0 6.02V973m0 6v9.04m0 6.02v9.03m0 6v9.03m0 6.02v9.03m0 6.02v9.03m0 6.02v9.03m0 6.02v9.02m0 6.02v9.03m0 6.02v9.02m0 6.02v9.03m0 6.02v4.5l-.82 3.03-2.15 2.15-3.03.82h-4.58m-6.1 0h-9.17m-6.1 0h-9.18m-6.1 0h-9.17m-6.1 0h-9.17m-6.1 0h-9.18m-6.1 0h-9.17m-6.1 0h-9.17m-6.1 0h-9.16m-6.1 0h-9.18m-6.1 0h-9.17m-6.12 0H1106l-3.03-.82-2.15-2.15-.82-3.03v-4.5m0-6.03v-9.03m0-6.02v-9.03m0-6.03v-9.03m0-6.02v-9.02m0-6.02v-9.03m0-6.02v-9.03m0-6.02v-9.03m0-6.02v-9.03m0-6v-9.04m0-6.02V979m0-6v-9.04m0-6.02v-9.03m0-6v-9.03m0-6.02v-9.03m0-6.02v-9.03m0-6.02v-9.03m0-6.02v-9.02m0-6.02v-9.03m0-6.02v-9.02m0-6.02v-9.03m0-6.02v-9m0-6.03v-9.03m0-6.02v-9.03m0-6.03v-9.03m0-6.02v-9.02m0-6.02v-9.03m0-6.02v-9.03m0-6.02v-9.03m0-6.02v-9.03m0-6v-9.04m0-6.02V663m0-6v-9.04m0-6.02v-9.03m0-6v-9.03m0-6.02v-9.03m0-6.02v-9.03m0-6.02v-9.03m0-6.02v-9.02m0-6.02v-9.03m0-6.02v-9.02m0-6.02v-9.03m0-6.02v-9m0-6.03v-9.03m0-6.02v-9.03m0-6.03v-9.03m0-6.02v-9.02m0-6.02v-9.03m0-6.02v-9.03m0-6.02v-9.03m0-6.02v-9.03m0-6v-9.04m0-6.02V347m0-6v-9.04m0-6.02v-9.03m0-6v-9.03m0-6.02v-9.03m0-6.02v-9.03m0-6.02v-9.03m0-6.02v-9.02m0-6.02v-9.03m0-6.02v-9.02m0-6.02v-9.03m0-6.02V186l.82-3.03 2.15-2.15 3.03-.82h4.58" stroke="#d86613" stroke-width="3" fill="none"/><path d="M1162 180h56v56h-56v-56z" stroke="#fff" stroke-opacity="0" fill="#d86613"/><path d="M1181.68 203.73l-1.14 1.13 2.33 2.34H1170v1.6h12.87l-2.33 2.34 1.14 1.13 4.27-4.27-4.27-4.27zM1210 207.2h-12.87l2.33-2.34-1.14-1.13-4.27 4.27 4.27 4.27 1.14-1.13-2.33-2.34H1210v-1.6zM1189.2 190.63v12.87h1.6v-12.87l2.34 2.33 1.13-1.13-4.27-4.28-4.27 4.28 1.13 1.13 2.34-2.33zM1190.8 225.37V212.5h-1.6v12.87l-2.34-2.33-1.13 1.13 4.27 4.28 4.27-4.28-1.13-1.13-2.34 2.33z" stroke="#fff" stroke-opacity="0" fill="#fff"/><use xlink:href="#a" transform="matrix(1,0,0,1,1100,251) translate(39.55 14.4)"/><use xlink:href="#b" transform="matrix(1,0,0,1,1100,251) translate(81.55 14.4)"/><path d="M140 106c0-3.3 2.7-6 6-6h1648c3.3 0 6 2.7 6 6v1108c0 3.3-2.7 6-6 6H146c-3.3 0-6-2.7-6-6z" stroke="#232f3e" stroke-width="3" fill="#fff" fill-opacity="0"/><path d="M140 100h56v56h-56v-56z" stroke="#fff" stroke-opacity="0" fill="#232f3e"/><path d="M158.22 125.87c-.04.48.05.87.17 1.34.1.4.28.7.48 1.07.04.1.08.22.08.34 0 .2-.12.36-.28.46l-.95.62c-.12.08-.25.13-.37.13-.16 0-.33-.06-.45-.2-.2-.2-.36-.43-.52-.7-.17-.25-.3-.53-.46-.86-1.1 1.37-2.62 2.1-4.4 2.06-1.14.06-2.12-.3-2.95-1.08-.78-.8-1.15-1.76-1.1-2.85-.05-1.23.4-2.28 1.35-3.08 1.07-.85 2.3-1.23 3.66-1.16.57 0 1.02.02 1.6.1.57.1 1.1.2 1.72.33v-1.1c.08-.88-.16-1.67-.7-2.37-.74-.56-1.56-.8-2.46-.7-.53 0-1.03.07-1.6.2-.58.13-1.03.3-1.6.5l-.5.2h-.24c-.2 0-.33-.16-.33-.45v-.75c0-.18.04-.34.12-.5.12-.16.24-.26.4-.33.66-.3 1.2-.5 1.9-.67.77-.2 1.47-.3 2.3-.28 1.47-.13 2.78.26 3.9 1.2.94 1.05 1.35 2.28 1.22 3.67zm-6.07 2.28c.57 0 1.06-.1 1.6-.28.57-.2 1.02-.5 1.44-.96.23-.27.4-.56.48-.93.12-.45.16-.84.16-1.3V124c-.53-.1-.94-.17-1.43-.2H153c-.8-.08-1.55.12-2.2.58-.54.45-.8 1.04-.75 1.73-.04.6.13 1.16.54 1.6.44.38.97.52 1.55.45zm12 1.6c-.22 0-.42-.03-.6-.15-.15-.17-.23-.36-.32-.6l-3.5-11.5-.1-.62c0-.24.1-.37.36-.37h1.47c.2 0 .37.04.57.15.17.18.25.37.3.6l2.5 9.96 2.38-9.93c0-.24.08-.44.28-.6.17-.12.37-.16.58-.15h1.2c.24 0 .4.03.6.15.17.18.25.36.3.6l2.33 9.94 2.56-10c.04-.2.16-.4.33-.58.15-.1.36-.17.56-.14h1.4c.16 0 .33.1.37.3v.31s0 .2-.12.35l-3.6 11.53c-.05.22-.13.42-.3.6-.2.1-.36.14-.57.13h-1.27c-.25.04-.45-.02-.62-.15-.16-.16-.25-.36-.3-.6l-2.3-9.6-2.3 9.6c-.03.24-.1.44-.27.6-.2.13-.4.2-.62.16zm19.2.38c-.82 0-1.5-.07-2.3-.25-.65-.13-1.14-.3-1.72-.6-.2-.1-.37-.23-.45-.42-.08-.14-.12-.28-.12-.43v-.75c0-.3.12-.46.32-.46h.3l.36.16c.58.23 1.03.4 1.6.5.62.14 1.15.2 1.8.2.8.05 1.5-.1 2.2-.5.48-.3.77-.8.72-1.4.05-.4-.12-.76-.36-1.04-.46-.4-.95-.65-1.52-.8l-2.18-.68c-.94-.25-1.73-.73-2.38-1.5-.5-.65-.74-1.35-.74-2.18 0-.6.12-1.08.4-1.6.3-.5.63-.9 1.08-1.22.5-.38.98-.6 1.6-.78.66-.18 1.2-.26 1.9-.25.32-.03.6-.03.97 0l1 .16.8.22.67.26c.16.1.28.22.45.38.08.15.12.3.12.5v.7c0 .32-.12.47-.37.47-.2-.03-.37-.08-.57-.18-.95-.42-1.8-.6-2.88-.58-.7-.04-1.3.1-1.97.4-.5.3-.74.8-.7 1.36 0 .4.13.76.46 1.05.5.4.98.65 1.6.82l2.1.67c.94.24 1.67.7 2.3 1.44.48.64.7 1.3.7 2.1 0 .63-.13 1.17-.38 1.73-.3.55-.62.95-1.1 1.32-.5.4-1 .66-1.6.84-.75.23-1.4.33-2.15.34zM186.1 137.48c-5.6 3.82-11.36 5.58-18.15 5.56-8.54.05-15.82-2.74-22.16-8.45-.5-.42 0-1 .48-.68 7.07 4.05 14.03 5.9 22.2 5.9 6.1-.04 11.3-1.1 16.93-3.47.83-.35 1.52.55.7 1.13z" stroke="#fff" stroke-opacity="0" fill="#fff"/><path d="M188.16 135.2c-.64-.82-4.16-.38-5.75-.2-.46 0-.53-.36-.1-.66 2.8-1.98 7.42-1.4 8-.74.6.67-.14 5.28-2.78 7.5-.4.32-.78.13-.6-.3.54-1.52 1.86-4.83 1.24-5.6z" stroke="#fff" stroke-opacity="0" fill="#fff"/><path d="M500 286c0-3.3 2.7-6 6-6h1088c3.3 0 6 2.7 6 6v269.42c0 3.3-2.7 6-6 6H506c-3.3 0-6-2.7-6-6z" fill="#fff" fill-opacity="0"/><path d="M524.13 280h12.1m12.08 0h12.1m12.1 0h12.08m12.1 0h12.08m12.08 0h12.1m12.08 0h12.1m12.08 0h12.1m12.08 0h12.1m12.08 0h12.08m12.1 0h12.08m12.1 0H778m12.1 0h12.08m12.1 0h12.08m12.08 0h12.1m12.08 0h12.1m12.08 0h12.1m12.08 0h12.1m12.08 0h12.08m12.1 0h12.08m12.1 0h12.08m12.1 0h12.08m12.1 0h12.08m12.08 0h12.1m12.08 0h12.1m12.08 0h12.1m12.08 0h12.1m12.08 0h12.08m12.1 0H1189m12.1 0h12.08m12.1 0h12.08m12.1 0h12.08m12.08 0h12.1m12.08 0h12.1m12.08 0h12.1m12.08 0h12.1m12.08 0h12.08m12.1 0h12.08m12.1 0h12.08m12.1 0h12.08m12.1 0h12.08m12.08 0h12.1m12.08 0h12.1m12.08 0h12.1m12.08 0h12.1m12.08 0h6.04l3.03.82 2.15 2.15.82 3.03v6.12m0 12.25v12.25m0 12.24v12.25m0 12.25v12.25m0 12.25v12.24m0 12.24v12.25m0 12.23v12.25m0 12.24v12.25m0 12.25v12.24m0 12.25v12.26m0 12.24v12.25m0 12.24v6.12l-.82 3.03-2.15 2.15-3.03.82h-6.04m-12.1 0h-12.08m-12.1 0h-12.08m-12.1 0h-12.08m-12.1 0h-12.08m-12.08 0h-12.1m-12.08 0h-12.1m-12.08 0h-12.1m-12.08 0h-12.1m-12.08 0h-12.08m-12.1 0h-12.08m-12.1 0H1322m-12.1 0h-12.08m-12.1 0h-12.08m-12.08 0h-12.1m-12.08 0h-12.1m-12.08 0h-12.1m-12.08 0h-12.1m-12.08 0h-12.08m-12.1 0h-12.08m-12.1 0h-12.08m-12.1 0h-12.08m-12.1 0h-12.08m-12.08 0h-12.1m-12.08 0h-12.1m-12.08 0h-12.1m-12.08 0h-12.1m-12.08 0h-12.08m-12.1 0H911m-12.1 0H886.8m-12.1 0h-12.08m-12.1 0h-12.08m-12.08 0h-12.1m-12.08 0h-12.1m-12.08 0h-12.1m-12.08 0h-12.1m-12.08 0h-12.08m-12.1 0H693.4m-12.1 0H669.2m-12.1 0h-12.08m-12.1 0h-12.08m-12.08 0h-12.1m-12.08 0h-12.1m-12.08 0h-12.1m-12.08 0h-12.1m-12.08 0H506l-3.03-.82-2.15-2.15-.82-3.03v-6.13m0-12.25V524.8m0-12.24V500.3m0-12.24v-12.24m0-12.25v-12.25m0-12.24v-12.25m0-12.24v-12.26m0-12.25v-12.25m0-12.25v-12.25m0-12.24v-12.24m0-12.24v-12.25m0-12.25V286l.82-3.03 2.15-2.15L506 280h6.04" stroke="#147eba" stroke-width="3" fill="none"/><use xlink:href="#c" transform="matrix(1,0,0,1,500,300) translate(516.55 14.4)"/><use xlink:href="#d" transform="matrix(1,0,0,1,500,300) translate(571.4499999999999 14.4)"/><path d="M220 146c0-3.3 2.7-6 6-6h1508c3.3 0 6 2.7 6 6v1028c0 3.3-2.7 6-6 6H226c-3.3 0-6-2.7-6-6z" stroke="#248814" stroke-width="3" fill="#fff" fill-opacity="0"/><path d="M220 140h56v56h-56v-56z" stroke="#fff" stroke-opacity="0" fill="#248814"/><path d="M251.76 168.3h-1.18v-1.1c-.12-1.73-1.48-3.07-3.2-3.2-1.9-.13-3.54 1.3-3.67 3.2v1.07h-1.17c-.44 0-.8.36-.8.8v6.13c0 .44.36.8.8.8h9.23c.44 0 .8-.36.8-.8v-6.1c0-.44-.36-.8-.8-.8zm-6.4-1.06c.1-1.02 1-1.77 2-1.67.9.08 1.58.77 1.67 1.67v1.06h-3.72zm5.65 7.08h-7.67v-4.42h7.63z" stroke="#fff" stroke-opacity="0" fill="#fff"/><path d="M262.27 165.74c-.08-2.44-1.58-4.47-3.87-5.3-1.58-.46-3.16-.13-4.4.9-.68-1.44-1.47-2.6-2.6-3.75-3.24-3.36-7.94-4.3-12.18-2.4-4.04 1.9-6.4 5.63-6.54 10.05v.7c-3.4.98-5.66 4.08-5.5 7.65v.63c.4 4.28 3.92 7.52 8.2 7.47h26s7.42-.63 7.42-8.1c.04-3.9-2.66-7.2-6.53-7.86zm-.96 14.4h-25.9c-3.47.05-6.3-2.53-6.6-5.97v-.52c-.15-3.05 1.93-5.7 4.92-6.3.38-.12.63-.48.6-.9-.06-.4-.06-.73 0-1.14.07-3.78 2.1-6.94 5.52-8.6 1.25-.56 2.4-.8 3.83-.84 2.62.08 4.87 1.04 6.7 2.94 1.25 1.3 2.04 2.6 2.62 4.3.03.15.1.28.24.37.37.27.87.2 1.12-.17.83-1.18 2.25-1.67 3.62-1.3 1.8.72 2.87 2.4 2.83 4.32-.07.4.22.82.64.9 3.57.36 6.2 3.55 5.82 7.12-.3 3.13-2.7 5.52-5.82 5.85z" stroke="#fff" stroke-opacity="0" fill="#fff"/><use xlink:href="#e" transform="matrix(1,0,0,1,291,160) translate(0 14.4)"/><use xlink:href="#f" transform="matrix(1,0,0,1,291,160) translate(43.900000000000006 14.4)"/><use xlink:href="#g" transform="matrix(1,0,0,1,291,160) translate(54.85000000000001 14.4)"/><use xlink:href="#h" transform="matrix(1,0,0,1,291,160) translate(0 36)"/><path d="M520 306c0-3.3 2.7-6 6-6h268c3.3 0 6 2.7 6 6v228c0 3.3-2.7 6-6 6H526c-3.3 0-6-2.7-6-6z" fill="#248814" fill-opacity=".13"/><path d="M520 300h56v56h-56v-56z" stroke="#fff" stroke-opacity="0" fill="#248814"/><path d="M563.38 322.18c-.15-.17-.34-.25-.56-.25h-5.15v-5.58c-.03-2.54-.96-4.7-2.84-6.4-1.9-1.84-4.15-2.75-6.77-2.75-2.65 0-4.9.83-6.8 2.62-1.9 1.7-2.87 3.87-2.9 6.4v5.66h-5.15c-.24 0-.43.1-.58.25-.16.17-.22.34-.22.6V348c0 .43.34.8.8.8h29.6c.46 0 .8-.37.8-.8v-25.28c0-.2-.06-.38-.22-.54zm-23.46-5.9c.03-2.13.8-3.88 2.37-5.3 1.6-1.5 3.52-2.2 5.73-2.2 2.22 0 4.12.75 5.7 2.25 1.54 1.4 2.32 3.2 2.32 5.32v5.58H539.9zm22.1 30.94h-28.03v-23.7h28z" stroke="#fff" stroke-opacity="0" fill="#fff"/><path d="M547.2 337.3v6.25h1.6v-6.23c2.13-.4 3.62-2.2 3.63-4.35 0-2.43-1.97-4.4-4.4-4.43-2.2-.03-4.06 1.5-4.44 3.68-.42 2.4 1.2 4.68 3.6 5.1zm.82-7.15c.78 0 1.44.27 2 .82.54.56.82 1.22.8 2 .03 1.55-1.2 2.8-2.74 2.82h-.06c-1.56.1-2.92-1.06-3.04-2.62-.12-1.56 1.05-2.93 2.6-3.03.16-.02.28-.02.44 0z" stroke="#fff" stroke-opacity="0" fill="#fff"/><use xlink:href="#i" transform="matrix(1,0,0,1,591,320) translate(0 14.4)"/><use xlink:href="#j" transform="matrix(1,0,0,1,591,320) translate(53.900000000000006 14.4)"/><use xlink:href="#k" transform="matrix(1,0,0,1,591,320) translate(0 36)"/><path d="M520 846.7c0-3.3 2.7-6 6-6h268c3.3 0 6 2.7 6 6v228c0 3.32-2.7 6-6 6H526c-3.3 0-6-2.68-6-6z" fill="#248814" fill-opacity=".13"/><path d="M520 840.7h56v56h-56v-56z" stroke="#fff" stroke-opacity="0" fill="#248814"/><path d="M563.38 862.88c-.15-.16-.34-.25-.56-.25h-5.15v-5.57c-.03-2.54-.96-4.7-2.84-6.4-1.9-1.84-4.15-2.75-6.77-2.75-2.65 0-4.9.84-6.8 2.63-1.9 1.7-2.87 3.87-2.9 6.4v5.66h-5.15c-.24 0-.43.08-.58.24-.16.17-.22.34-.22.6v25.28c0 .4.34.8.8.8h29.6c.46 0 .8-.4.8-.8v-25.3c0-.2-.06-.37-.22-.54zm-23.46-5.9c.03-2.12.8-3.87 2.37-5.3 1.6-1.48 3.52-2.2 5.73-2.2 2.22 0 4.12.76 5.7 2.26 1.54 1.4 2.32 3.2 2.32 5.32v5.57H539.9zm22.1 30.95h-28.03v-23.7h28z" stroke="#fff" stroke-opacity="0" fill="#fff"/><path d="M547.2 878.02v6.24h1.6v-6.23c2.13-.4 3.62-2.2 3.63-4.35 0-2.43-1.97-4.4-4.4-4.43-2.2-.03-4.06 1.5-4.44 3.68-.42 2.4 1.2 4.68 3.6 5.1zm.82-7.16c.78 0 1.44.27 2 .82.54.56.82 1.22.8 2 .03 1.55-1.2 2.8-2.74 2.82h-.06c-1.56.12-2.92-1.05-3.04-2.6-.12-1.57 1.05-2.94 2.6-3.04.16-.02.28-.02.44 0z" stroke="#fff" stroke-opacity="0" fill="#fff"/><use xlink:href="#i" transform="matrix(1,0,0,1,591,860.7086614173228) translate(0 14.4)"/><use xlink:href="#l" transform="matrix(1,0,0,1,591,860.7086614173228) translate(53.900000000000006 14.4)"/><use xlink:href="#m" transform="matrix(1,0,0,1,591,860.7086614173228) translate(0 36)"/><path d="M840 346c0-3.3 2.7-6 6-6h708c3.3 0 6 2.7 6 6v188c0 3.3-2.7 6-6 6H846c-3.3 0-6-2.7-6-6z" fill="#147eba" fill-opacity=".13"/><path d="M840 340h56v56h-56v-56z" stroke="#fff" stroke-opacity="0" fill="#147eba"/><path d="M883.38 362.18c-.15-.17-.34-.25-.56-.25h-5.15v-5.58c-.03-2.54-.96-4.7-2.84-6.4-1.9-1.84-4.15-2.75-6.77-2.75-2.65 0-4.9.83-6.8 2.62-1.9 1.7-2.87 3.87-2.9 6.4v5.66h-5.15c-.24 0-.43.1-.58.25-.16.17-.22.34-.22.6V388c0 .43.34.8.8.8h29.6c.46 0 .8-.37.8-.8v-25.28c0-.2-.06-.38-.22-.54zm-23.46-5.9c.03-2.13.8-3.88 2.37-5.3 1.6-1.5 3.52-2.2 5.73-2.2 2.22 0 4.12.75 5.7 2.25 1.54 1.4 2.32 3.2 2.32 5.32v5.58H859.9zm22.1 30.94h-28.03v-23.7h28z" stroke="#fff" stroke-opacity="0" fill="#fff"/><path d="M867.2 377.3v6.25h1.6v-6.23c2.13-.4 3.62-2.2 3.63-4.35 0-2.43-1.97-4.4-4.4-4.43-2.2-.03-4.06 1.5-4.44 3.68-.42 2.4 1.2 4.68 3.6 5.1zm.82-7.15c.78 0 1.44.27 2 .82.54.56.82 1.22.8 2 .03 1.55-1.2 2.8-2.74 2.82h-.06c-1.56.1-2.92-1.06-3.04-2.62-.12-1.56 1.05-2.93 2.6-3.03.16-.02.28-.02.44 0z" stroke="#fff" stroke-opacity="0" fill="#fff"/><use xlink:href="#n" transform="matrix(1,0,0,1,911,360) translate(0 14.4)"/><use xlink:href="#o" transform="matrix(1,0,0,1,911,360) translate(60.9 14.4)"/><use xlink:href="#p" transform="matrix(1,0,0,1,911,360) translate(0 36)"/><path d="M840 886c0-3.3 2.7-6 6-6h708c3.3 0 6 2.7 6 6v188.7c0 3.32-2.7 6-6 6H846c-3.3 0-6-2.68-6-6z" fill="#147eba" fill-opacity=".13"/><path d="M840 880h56v56h-56v-56z" stroke="#fff" stroke-opacity="0" fill="#147eba"/><path d="M883.38 902.18c-.15-.17-.34-.25-.56-.25h-5.15v-5.58c-.03-2.54-.96-4.7-2.84-6.4-1.9-1.84-4.15-2.75-6.77-2.75-2.65 0-4.9.83-6.8 2.62-1.9 1.7-2.87 3.87-2.9 6.4v5.66h-5.15c-.24 0-.43.1-.58.25-.16.17-.22.34-.22.6V928c0 .43.34.8.8.8h29.6c.46 0 .8-.37.8-.8v-25.28c0-.2-.06-.38-.22-.54zm-23.46-5.9c.03-2.13.8-3.88 2.37-5.3 1.6-1.5 3.52-2.2 5.73-2.2 2.22 0 4.12.75 5.7 2.25 1.54 1.4 2.32 3.2 2.32 5.32v5.58H859.9zm22.1 30.94h-28.03v-23.7h28z" stroke="#fff" stroke-opacity="0" fill="#fff"/><path d="M867.2 917.3v6.25h1.6v-6.23c2.13-.4 3.62-2.2 3.63-4.35 0-2.43-1.97-4.4-4.4-4.43-2.2-.03-4.06 1.5-4.44 3.68-.42 2.4 1.2 4.68 3.6 5.1zm.82-7.15c.78 0 1.44.27 2 .82.54.56.82 1.22.8 2 .03 1.55-1.2 2.8-2.74 2.82h-.06c-1.56.1-2.92-1.06-3.04-2.62-.12-1.56 1.05-2.93 2.6-3.03.16-.02.28-.02.44 0z" stroke="#fff" stroke-opacity="0" fill="#fff"/><use xlink:href="#n" transform="matrix(1,0,0,1,911,900.0000000000001) translate(0 14.4)"/><use xlink:href="#o" transform="matrix(1,0,0,1,911,900.0000000000001) translate(60.9 14.4)"/><use xlink:href="#q" transform="matrix(1,0,0,1,911,900.0000000000001) translate(0 36)"/><path d="M540 186c0-3.3 2.7-6 6-6h168c3.3 0 6 2.7 6 6v948c0 3.3-2.7 6-6 6H546c-3.3 0-6-2.7-6-6z" fill="#fff" fill-opacity="0"/><path d="M556.7 180h9.15m6.1 0h9.18m6.1 0h9.17m6.1 0h9.17m6.1 0h9.18m6.1 0h9.17m6.1 0h9.17m6.1 0h9.16m6.1 0h9.18m6.1 0h9.17m6.12 0H714l3.03.82 2.15 2.15.82 3.03v4.5m0 6.03v9.03m0 6.02v9.03m0 6.03v9.03m0 6.02v9.02m0 6.02v9.03m0 6.02v9.03m0 6.02v9.03m0 6.02v9.03m0 6v9.04m0 6.02V341m0 6v9.04m0 6.02v9.03m0 6v9.03m0 6.02v9.03m0 6.02v9.03m0 6.02v9.03m0 6.02v9.02m0 6.02v9.03m0 6.02v9.02m0 6.02v9.03m0 6.02v9m0 6.03v9.03m0 6.02v9.03m0 6.03v9.03m0 6.02v9.02m0 6.02v9.03m0 6.02v9.03m0 6.02v9.03m0 6.02v9.03m0 6v9.04m0 6.02V657m0 6v9.04m0 6.02v9.03m0 6v9.03m0 6.02v9.03m0 6.02v9.03m0 6.02v9.03m0 6.02v9.02m0 6.02v9.03m0 6.02v9.02m0 6.02v9.03m0 6.02v9m0 6.03v9.03m0 6.02v9.03m0 6.03v9.03m0 6.02v9.02m0 6.02v9.03m0 6.02v9.03m0 6.02v9.03m0 6.02v9.03m0 6v9.04m0 6.02V973m0 6v9.04m0 6.02v9.03m0 6v9.03m0 6.02v9.03m0 6.02v9.03m0 6.02v9.03m0 6.02v9.02m0 6.02v9.03m0 6.02v9.02m0 6.02v9.03m0 6.02v4.5l-.82 3.03-2.15 2.15-3.03.82h-4.58m-6.1 0h-9.17m-6.1 0h-9.18m-6.1 0h-9.17m-6.1 0h-9.17m-6.1 0h-9.18m-6.1 0h-9.17m-6.1 0h-9.17m-6.1 0h-9.16m-6.1 0h-9.18m-6.1 0h-9.17m-6.12 0H546l-3.03-.82-2.15-2.15-.82-3.03v-4.5m0-6.03v-9.03m0-6.02v-9.03m0-6.03v-9.03m0-6.02v-9.02m0-6.02v-9.03m0-6.02v-9.03m0-6.02v-9.03m0-6.02v-9.03m0-6v-9.04m0-6.02V979m0-6v-9.04m0-6.02v-9.03m0-6v-9.03m0-6.02v-9.03m0-6.02v-9.03m0-6.02v-9.03m0-6.02v-9.02m0-6.02v-9.03m0-6.02v-9.02m0-6.02v-9.03m0-6.02v-9m0-6.03v-9.03m0-6.02v-9.03m0-6.03v-9.03m0-6.02v-9.02m0-6.02v-9.03m0-6.02v-9.03m0-6.02v-9.03m0-6.02v-9.03m0-6v-9.04m0-6.02V663m0-6v-9.04m0-6.02v-9.03m0-6v-9.03m0-6.02v-9.03m0-6.02v-9.03m0-6.02v-9.03m0-6.02v-9.02m0-6.02v-9.03m0-6.02v-9.02m0-6.02v-9.03m0-6.02v-9m0-6.03v-9.03m0-6.02v-9.03m0-6.03v-9.03m0-6.02v-9.02m0-6.02v-9.03m0-6.02v-9.03m0-6.02v-9.03m0-6.02v-9.03m0-6v-9.04m0-6.02V347m0-6v-9.04m0-6.02v-9.03m0-6v-9.03m0-6.02v-9.03m0-6.02v-9.03m0-6.02v-9.03m0-6.02v-9.02m0-6.02v-9.03m0-6.02v-9.02m0-6.02v-9.03m0-6.02V186l.82-3.03 2.15-2.15L546 180h4.58" stroke="#d86613" stroke-width="3" fill="none"/><path d="M602 180h56v56h-56v-56z" stroke="#fff" stroke-opacity="0" fill="#d86613"/><path d="M621.68 203.73l-1.14 1.13 2.33 2.34H610v1.6h12.87l-2.33 2.34 1.14 1.13 4.27-4.27-4.27-4.27zM650 207.2h-12.87l2.33-2.34-1.14-1.13-4.27 4.27 4.27 4.27 1.14-1.13-2.33-2.34H650v-1.6zM629.2 190.63v12.87h1.6v-12.87l2.34 2.33 1.13-1.13-4.27-4.28-4.27 4.28 1.13 1.13 2.34-2.33zM630.8 225.37V212.5h-1.6v12.87l-2.34-2.33-1.13 1.13 4.27 4.28 4.27-4.28-1.13-1.13-2.34 2.33z" stroke="#fff" stroke-opacity="0" fill="#fff"/><use xlink:href="#a" transform="matrix(1,0,0,1,540,251) translate(39.55 14.4)"/><use xlink:href="#b" transform="matrix(1,0,0,1,540,251) translate(81.55 14.4)"/><path d="M220 720c-22.08 0-40-17.92-40-40s17.92-40 40-40 40 17.92 40 40-17.92 40-40 40zm0-76.56c-20.24 0-36.56 16.32-36.56 36.56 0 20.24 16.32 36.56 36.56 36.56 20.24 0 36.56-16.32 36.56-36.56 0-20.24-16.32-36.56-36.56-36.56z" stroke="#fff" stroke-opacity="0" fill="#693cc5"/><path d="M239.14 704.03h-6.38c-.96 0-1.7-.75-1.7-1.7v-33c-3.47-1.8-6.76-2.6-10.64-2.7-4.26.1-7.8 1.04-11.55 3.07v32.63c0 .95-.76 1.7-1.67 1.7h-6.34c-.96 0-1.7-.75-1.7-1.7V665.2c0-.5.2-.93.57-1.26 6.1-5 12.85-7.32 20.7-7.13 7.4-.14 13.8 1.94 19.75 6.33.46.33.67.8.67 1.33v37.87c0 .95-.75 1.7-1.7 1.7zm-4.67-3.4h2.96V665.3c-5.2-3.58-10.67-5.2-17-5.1-6.73-.18-12.52 1.7-17.86 5.77v34.66h2.92V668.6c0-.65.32-1.22.9-1.5 4.5-2.55 8.85-3.78 14.02-3.87 4.7.14 8.7 1.18 12.88 3.4h.17c.63.28 1 .85 1 1.56z" stroke="#fff" stroke-opacity="0" fill="#693cc5"/><use xlink:href="#r" transform="matrix(1,0,0,1,150,729) translate(32.376543209876544 17.77777777777778)"/><use xlink:href="#s" transform="matrix(1,0,0,1,150,729) translate(28.672839506172842 44.44444444444444)"/><path d="M320 620h120v120H320V620z" stroke="#fff" stroke-opacity="0" stroke-width="2" fill="#693cc5"/><path d="M399.27 681.6c.7 4.3 3.9 7.5 8.2 8.23 5.47.88 10.55-2.8 11.4-8.24.95-5.45-2.72-10.57-8.2-11.45-5.38-.88-10.54 2.8-11.4 8.24H387.3c-.14-3.13-.85-5.7-2.18-8.5l14.38-12.15c1.8 1.44 3.83 2.16 6.18 2.16 5.47 0 9.92-4.47 9.92-10 0-5.43-4.45-9.9-9.92-9.9-5.55 0-10 4.47-10 10 0 2 .54 3.67 1.64 5.43l-13.9 11.68c-1.8-2.63-3.77-4.63-6.42-6.4-10.7-7.1-25.1-4.23-32.2 6.4-7.1 10.65-4.22 25.05 6.4 32.17 10.64 7.12 25.1 4.24 32.2-6.4l13.92 11.76c-1.1 1.68-1.65 3.36-1.65 5.44 0 2.32.7 4.32 2.2 6.16 3.35 4.32 9.6 5.04 13.9 1.6 4.38-3.36 5.08-9.6 1.64-13.92-3.35-4.3-9.6-5.03-13.9-1.67l-14.38-12.16c1.33-2.8 2.04-5.36 2.2-8.48zm9.77-8.33c3.75 0 6.8 2.96 6.8 6.72 0 3.75-3.05 6.7-6.72 6.8-3.76 0-6.8-3.05-6.8-6.8 0-3.7 3.04-6.73 6.72-6.73zm-3.28-30.08c3.67 0 6.72 3.03 6.72 6.8 0 3.67-3.05 6.7-6.72 6.7-3.76 0-6.8-3.03-6.8-6.7 0-3.77 3.04-6.8 6.8-6.8zm0 60.15c3.67 0 6.72 2.96 6.72 6.72s-3.05 6.72-6.72 6.72c-3.76 0-6.8-2.97-6.8-6.73 0-3.76 3.04-6.72 6.8-6.72zM364.18 700c-11.02 0-20-8.97-20-20 0-11.05 8.98-20 20-20s20 8.95 20 20c0 11.03-8.98 20-20 20z" stroke="#fff" stroke-opacity="0" stroke-width="2" fill="#fff"/><use xlink:href="#t" transform="matrix(1,0,0,1,290,749) translate(29.567901234567913 17.77777777777778)"/><use xlink:href="#u" transform="matrix(1,0,0,1,290,749) translate(101.04938271604938 17.77777777777778)"/><use xlink:href="#v" transform="matrix(1,0,0,1,290,749) translate(41.29629629629629 44.44444444444444)"/><path d="M278.5 680h23" stroke="#5e5e5e" stroke-width="2" fill="none"/><path d="M263.24 680l14.26-4.64v9.28zM316.76 680l-14.26 4.64v-9.28z" stroke="#5e5e5e" stroke-width="2" fill="#5e5e5e"/><path d="M630.58 428.48v-14.66h-5.4v-3.1h14.64v3.1h-5.4v14.66zM642 412.35c.9-.7 1.74-1.18 2.8-1.56 1.03-.36 1.95-.5 3.04-.5 1.46-.06 2.72.4 3.83 1.36 1.02.96 1.52 2.18 1.47 3.58-.03 1.02-.25 1.9-.74 2.8-.7 1.2-1.4 2.17-2.34 3.2-1.1 1.2-2.53 2.62-4.35 4.28h8.17v2.96h-12.34v-2.76c2.22-2.22 3.86-3.95 4.9-5.17.9-.96 1.57-1.85 2.26-2.96.38-.68.58-1.32.62-2.1.03-.58-.16-1.1-.58-1.5-.46-.4-1-.6-1.6-.56-.88 0-1.64.17-2.46.5-1 .4-1.8.83-2.68 1.47z" stroke="#fff" stroke-opacity="0" fill="#d86613"/><path d="M672.18 452.18h-64.36v-64.36h64.36zm-61.02-3.34h57.68v-57.68h-57.68z" stroke="#fff" stroke-opacity="0" fill="#d86613"/><path d="M617.02 380h3.33v9.48h-3.33V380zM627.47 380h3.33v9.48h-3.33V380zM637.93 380h3.34v9.48h-3.34V380zM648.4 380h3.33v9.48h-3.33V380zM658.87 380h3.33v9.48h-3.33V380zM617.02 450.52h3.33V460h-3.33v-9.48zM627.47 450.52h3.33V460h-3.33v-9.48zM637.93 450.52h3.34V460h-3.34v-9.48zM648.4 450.52h3.33V460h-3.33v-9.48zM658.87 450.52h3.33V460h-3.33v-9.48zM670.52 397.42H680v3.33h-9.48v-3.33zM670.52 407.87H680v3.33h-9.48v-3.33zM670.52 418.33H680v3.34h-9.48v-3.34zM670.52 428.8H680v3.33h-9.48v-3.33zM670.52 439.25H680v3.33h-9.48v-3.33zM600 397.42h9.48v3.33H600v-3.33zM600 407.87h9.48v3.33H600v-3.33zM600 418.33h9.48v3.34H600v-3.34zM600 428.8h9.48v3.33H600v-3.33zM600 439.25h9.48v3.33H600v-3.33z" stroke="#fff" stroke-opacity="0" fill="#d86613"/><use xlink:href="#w" transform="matrix(1,0,0,1,570,469) translate(22.53086419753086 17.77777777777778)"/><use xlink:href="#x" transform="matrix(1,0,0,1,570,469) translate(80.4320987654321 17.77777777777778)"/><use xlink:href="#y" transform="matrix(1,0,0,1,570,469) translate(28.02469135802469 44.44444444444444)"/><path d="M630.58 968.48v-14.66h-5.4v-3.1h14.64v3.1h-5.4v14.66zM642 952.35c.9-.7 1.74-1.18 2.8-1.56 1.03-.36 1.95-.5 3.04-.5 1.46-.06 2.72.4 3.83 1.36 1.02.96 1.52 2.18 1.47 3.58-.03 1.02-.25 1.9-.74 2.8-.7 1.2-1.4 2.17-2.34 3.2-1.1 1.2-2.53 2.62-4.35 4.28h8.17v2.96h-12.34v-2.76c2.22-2.22 3.86-3.95 4.9-5.17.9-.96 1.57-1.85 2.26-2.96.38-.68.58-1.32.62-2.1.03-.58-.16-1.1-.58-1.5-.46-.4-1-.6-1.6-.56-.88 0-1.64.17-2.46.5-1 .4-1.8.83-2.68 1.47z" stroke="#fff" stroke-opacity="0" fill="#d86613"/><path d="M672.18 992.18h-64.36v-64.36h64.36zm-61.02-3.34h57.68v-57.68h-57.68z" stroke="#fff" stroke-opacity="0" fill="#d86613"/><path d="M617.02 920h3.33v9.48h-3.33V920zM627.47 920h3.33v9.48h-3.33V920zM637.93 920h3.34v9.48h-3.34V920zM648.4 920h3.33v9.48h-3.33V920zM658.87 920h3.33v9.48h-3.33V920zM617.02 990.52h3.33v9.48h-3.33v-9.48zM627.47 990.52h3.33v9.48h-3.33v-9.48zM637.93 990.52h3.34v9.48h-3.34v-9.48zM648.4 990.52h3.33v9.48h-3.33v-9.48zM658.87 990.52h3.33v9.48h-3.33v-9.48zM670.52 937.42H680v3.33h-9.48v-3.33zM670.52 947.87H680v3.33h-9.48v-3.33zM670.52 958.33H680v3.34h-9.48v-3.34zM670.52 968.8H680v3.33h-9.48v-3.33zM670.52 979.25H680v3.33h-9.48v-3.33zM600 937.42h9.48v3.33H600v-3.33zM600 947.87h9.48v3.33H600v-3.33zM600 958.33h9.48v3.34H600v-3.34zM600 968.8h9.48v3.33H600v-3.33zM600 979.25h9.48v3.33H600v-3.33z" stroke="#fff" stroke-opacity="0" fill="#d86613"/><use xlink:href="#w" transform="matrix(1,0,0,1,570,1009) translate(22.53086419753086 17.77777777777778)"/><use xlink:href="#x" transform="matrix(1,0,0,1,570,1009) translate(80.4320987654321 17.77777777777778)"/><use xlink:href="#y" transform="matrix(1,0,0,1,570,1009) translate(28.02469135802469 44.44444444444444)"/><path d="M1400 900h120v120h-120V900z" stroke="#fff" stroke-opacity="0" stroke-width="2" fill="#3b48cc"/><path d="M1477.53 945.17c0-4.63-9.1-6.8-17.6-6.8-8.5 0-17.6 2.17-17.6 6.8 0 .26.02.43.06.7v28.85c-.08 4.83 9.06 6.86 17.6 6.86 8.57 0 17.6-2.1 17.6-6.74v-29.67zm-17.57-3.6c9.3 0 14.4 2.56 14.4 3.6 0 1.03-5.05 3.58-14.4 3.58-9.4 0-14.4-2.5-14.4-3.58 0-1.04 5.05-3.6 14.4-3.6zm14.4 33.27c0 1.04-5.05 3.55-14.4 3.55-9.35 0-14.4-2.52-14.4-3.56v-5.05c3.36 1.85 9.04 2.7 14.4 2.7 5.36 0 10.97-.85 14.4-2.67zm0-9.1c0 1.03-5.05 3.58-14.4 3.58-9.4 0-14.4-2.55-14.4-3.6h.04v-6.08c3.4 1.8 9.03 2.68 14.4 2.68 5.36 0 10.97-.87 14.4-2.64zm0-10.2c0 1.03-5.05 3.62-14.4 3.62-9.4 0-14.4-2.6-14.4-3.63h.04v-6.22c3.42 1.83 9 2.65 14.4 2.65s11.07-.87 14.4-2.72zM1425.46 996.82H1436v3.2h-14.4c-.88 0-1.6-.72-1.6-1.6V984h3.2v10.5l12-11.98 2.24 2.26zM1500 984.02v14.4c0 .9-.7 1.6-1.6 1.6H1484v-3.2h10.54l-11.82-11.85 2.26-2.25 11.82 11.8v-10.5zM1500 921.62v14.4h-3.2v-10.57l-11.82 11.83-2.26-2.26 11.8-11.8H1484V920h14.4c.9 0 1.6.7 1.6 1.6zM1437.44 935.2l-2.23 2.24-12-12V936h-3.2v-14.4c0-.9.72-1.62 1.6-1.62h14.4v3.2h-10.54zM1435.46 974.34c-9.78-3.5-15.38-8.9-15.38-14.74s5.6-11.2 15.38-14.74l1.08 3c-8.3 3.02-13.27 7.38-13.27 11.74s4.98 8.72 13.27 11.73zM1483.65 974.7l-1.03-3.06c8.88-3 14.18-7.48 14.18-12.04 0-4.56-5.3-9.05-14.18-12.07l1.03-3.02c10.4 3.5 16.35 9.03 16.35 15.1s-5.96 11.56-16.35 15.1z" stroke="#fff" stroke-opacity="0" stroke-width="2" fill="#fff"/><use xlink:href="#z" transform="matrix(1,0,0,1,1370,1029.0000000000002) translate(22.808641975308646 17.77777777777778)"/><use xlink:href="#A" transform="matrix(1,0,0,1,1370,1029.0000000000002) translate(110.40123456790124 17.77777777777778)"/><use xlink:href="#B" transform="matrix(1,0,0,1,1370,1029.0000000000002) translate(52.99382716049383 44.44444444444444)"/><path d="M380 601.5V426c0-3.3 2.7-6 6-6h195.5" stroke="#5e5e5e" stroke-width="2" fill="none"/><path d="M380 616.76l-4.64-14.26h9.28zM596.76 420l-14.26 4.64v-9.28z" stroke="#5e5e5e" stroke-width="2" fill="#5e5e5e"/><path d="M458.5 680h5.5c3.3 0 6 2.7 6 6v268c0 3.3 2.7 6 6 6h105.5" stroke="#5e5e5e" stroke-width="2" fill="none"/><path d="M443.24 680l14.26-4.64v9.28zM596.76 960l-14.26 4.64v-9.28z" stroke="#5e5e5e" stroke-width="2" fill="#5e5e5e"/><path d="M840 620h120v120H840V620z" stroke="#fff" stroke-opacity="0" stroke-width="2" fill="#693cc5"/><path d="M919.27 681.6c.7 4.3 3.9 7.5 8.2 8.23 5.47.88 10.55-2.8 11.4-8.24.95-5.45-2.72-10.57-8.2-11.45-5.38-.88-10.54 2.8-11.4 8.24H907.3c-.14-3.13-.85-5.7-2.18-8.5l14.38-12.15c1.8 1.44 3.83 2.16 6.18 2.16 5.47 0 9.92-4.47 9.92-10 0-5.43-4.45-9.9-9.92-9.9-5.55 0-10 4.47-10 10 0 2 .54 3.67 1.64 5.43l-13.9 11.68c-1.8-2.63-3.77-4.63-6.42-6.4-10.7-7.1-25.1-4.23-32.2 6.4-7.1 10.65-4.22 25.05 6.4 32.17 10.64 7.12 25.1 4.24 32.2-6.4l13.92 11.76c-1.1 1.68-1.65 3.36-1.65 5.44 0 2.32.7 4.32 2.2 6.16 3.35 4.32 9.6 5.04 13.9 1.6 4.38-3.36 5.08-9.6 1.64-13.92-3.35-4.3-9.6-5.03-13.9-1.67l-14.38-12.16c1.33-2.8 2.04-5.36 2.2-8.48zm9.77-8.33c3.75 0 6.8 2.96 6.8 6.72 0 3.75-3.05 6.7-6.72 6.8-3.76 0-6.8-3.05-6.8-6.8 0-3.7 3.04-6.73 6.72-6.73zm-3.28-30.08c3.67 0 6.72 3.03 6.72 6.8 0 3.67-3.05 6.7-6.72 6.7-3.76 0-6.8-3.03-6.8-6.7 0-3.77 3.04-6.8 6.8-6.8zm0 60.15c3.67 0 6.72 2.96 6.72 6.72s-3.05 6.72-6.72 6.72c-3.76 0-6.8-2.97-6.8-6.73 0-3.76 3.04-6.72 6.8-6.72zM884.18 700c-11.02 0-20-8.97-20-20 0-11.05 8.98-20 20-20s20 8.95 20 20c0 11.03-8.98 20-20 20z" stroke="#fff" stroke-opacity="0" stroke-width="2" fill="#fff"/><use xlink:href="#t" transform="matrix(1,0,0,1,810,749) translate(29.567901234567913 17.77777777777778)"/><use xlink:href="#u" transform="matrix(1,0,0,1,810,749) translate(101.04938271604938 17.77777777777778)"/><use xlink:href="#v" transform="matrix(1,0,0,1,810,749) translate(41.29629629629629 44.44444444444444)"/><path d="M681 960h73c3.3 0 6-2.7 6-6V686c0-3.3 2.7-6 6-6h55.5" stroke="#5e5e5e" stroke-width="2" fill="none"/><path d="M681.03 961H680v-2h1.03z" fill="#5e5e5e"/><path d="M836.76 680l-14.26 4.64v-9.28z" stroke="#5e5e5e" stroke-width="2" fill="#5e5e5e"/><path d="M681 420h73c3.3 0 6 2.7 6 6v248c0 3.3 2.7 6 6 6h55.5" stroke="#5e5e5e" stroke-width="2" fill="none"/><path d="M681.03 421H680v-2h1.03z" fill="#5e5e5e"/><path d="M836.76 680l-14.26 4.64v-9.28z" stroke="#5e5e5e" stroke-width="2" fill="#5e5e5e"/><path d="M500 826c0-3.3 2.7-6 6-6h1088c3.3 0 6 2.7 6 6v269.42c0 3.3-2.7 6-6 6H506c-3.3 0-6-2.7-6-6z" fill="#fff" fill-opacity="0"/><path d="M524.13 820h12.1m12.08 0h12.1m12.1 0h12.08m12.1 0h12.08m12.08 0h12.1m12.08 0h12.1m12.08 0h12.1m12.08 0h12.1m12.08 0h12.08m12.1 0h12.08m12.1 0H778m12.1 0h12.08m12.1 0h12.08m12.08 0h12.1m12.08 0h12.1m12.08 0h12.1m12.08 0h12.1m12.08 0h12.08m12.1 0h12.08m12.1 0h12.08m12.1 0h12.08m12.1 0h12.08m12.08 0h12.1m12.08 0h12.1m12.08 0h12.1m12.08 0h12.1m12.08 0h12.08m12.1 0H1189m12.1 0h12.08m12.1 0h12.08m12.1 0h12.08m12.08 0h12.1m12.08 0h12.1m12.08 0h12.1m12.08 0h12.1m12.08 0h12.08m12.1 0h12.08m12.1 0h12.08m12.1 0h12.08m12.1 0h12.08m12.08 0h12.1m12.08 0h12.1m12.08 0h12.1m12.08 0h12.1m12.08 0h6.04l3.03.82 2.15 2.15.82 3.03v6.12m0 12.25v12.25m0 12.24v12.25m0 12.25v12.25m0 12.25v12.24m0 12.24v12.25m0 12.23v12.25m0 12.24v12.25m0 12.25v12.24m0 12.25v12.26m0 12.24v12.25m0 12.24v6.12l-.82 3.03-2.15 2.15-3.03.82h-6.04m-12.1 0h-12.08m-12.1 0h-12.08m-12.1 0h-12.08m-12.1 0h-12.08m-12.08 0h-12.1m-12.08 0h-12.1m-12.08 0h-12.1m-12.08 0h-12.1m-12.08 0h-12.08m-12.1 0h-12.08m-12.1 0H1322m-12.1 0h-12.08m-12.1 0h-12.08m-12.08 0h-12.1m-12.08 0h-12.1m-12.08 0h-12.1m-12.08 0h-12.1m-12.08 0h-12.08m-12.1 0h-12.08m-12.1 0h-12.08m-12.1 0h-12.08m-12.1 0h-12.08m-12.08 0h-12.1m-12.08 0h-12.1m-12.08 0h-12.1m-12.08 0h-12.1m-12.08 0h-12.08m-12.1 0H911m-12.1 0H886.8m-12.1 0h-12.08m-12.1 0h-12.08m-12.08 0h-12.1m-12.08 0h-12.1m-12.08 0h-12.1m-12.08 0h-12.1m-12.08 0h-12.08m-12.1 0H693.4m-12.1 0H669.2m-12.1 0h-12.08m-12.1 0h-12.08m-12.08 0h-12.1m-12.08 0h-12.1m-12.08 0h-12.1m-12.08 0h-12.1m-12.08 0H506l-3.03-.82-2.15-2.15-.82-3.03v-6.13m0-12.25v-12.25m0-12.24v-12.25m0-12.24v-12.24m0-12.25v-12.25m0-12.24v-12.25m0-12.24v-12.26m0-12.25v-12.25m0-12.25v-12.25m0-12.24v-12.24m0-12.24v-12.25m0-12.25V826l.82-3.03 2.15-2.15L506 820h6.04" stroke="#147eba" stroke-width="3" fill="none"/><use xlink:href="#c" transform="matrix(1,0,0,1,500,840) translate(516.55 14.4)"/><use xlink:href="#C" transform="matrix(1,0,0,1,500,840) translate(571.4499999999999 14.4)"/><path d="M1180.58 968.48v-14.66h-5.4v-3.1h14.64v3.1h-5.4v14.66zM1192 952.35c.9-.7 1.74-1.18 2.8-1.56 1.03-.36 1.95-.5 3.04-.5 1.46-.06 2.72.4 3.83 1.36 1.02.96 1.52 2.18 1.47 3.58-.03 1.02-.25 1.9-.74 2.8-.7 1.2-1.4 2.17-2.34 3.2-1.1 1.2-2.53 2.62-4.35 4.28h8.17v2.96h-12.34v-2.76c2.22-2.22 3.86-3.95 4.9-5.17.9-.96 1.57-1.85 2.26-2.96.38-.68.58-1.32.62-2.1.03-.58-.16-1.1-.58-1.5-.46-.4-1-.6-1.6-.56-.88 0-1.64.17-2.46.5-1 .4-1.8.83-2.68 1.47z" stroke="#fff" stroke-opacity="0" fill="#d86613"/><path d="M1222.18 992.18h-64.36v-64.36h64.36zm-61.02-3.34h57.68v-57.68h-57.68z" stroke="#fff" stroke-opacity="0" fill="#d86613"/><path d="M1167.02 920h3.33v9.48h-3.33V920zM1177.47 920h3.33v9.48h-3.33V920zM1187.93 920h3.34v9.48h-3.34V920zM1198.4 920h3.33v9.48h-3.33V920zM1208.87 920h3.33v9.48h-3.33V920zM1167.02 990.52h3.33v9.48h-3.33v-9.48zM1177.47 990.52h3.33v9.48h-3.33v-9.48zM1187.93 990.52h3.34v9.48h-3.34v-9.48zM1198.4 990.52h3.33v9.48h-3.33v-9.48zM1208.87 990.52h3.33v9.48h-3.33v-9.48zM1220.52 937.42h9.48v3.33h-9.48v-3.33zM1220.52 947.87h9.48v3.33h-9.48v-3.33zM1220.52 958.33h9.48v3.34h-9.48v-3.34zM1220.52 968.8h9.48v3.33h-9.48v-3.33zM1220.52 979.25h9.48v3.33h-9.48v-3.33zM1150 937.42h9.48v3.33H1150v-3.33zM1150 947.87h9.48v3.33H1150v-3.33zM1150 958.33h9.48v3.34H1150v-3.34zM1150 968.8h9.48v3.33H1150v-3.33zM1150 979.25h9.48v3.33H1150v-3.33z" stroke="#fff" stroke-opacity="0" fill="#d86613"/><use xlink:href="#D" transform="matrix(1,0,0,1,1120,1009) translate(23.703703703703695 17.77777777777778)"/><use xlink:href="#x" transform="matrix(1,0,0,1,1120,1009) translate(79.25925925925927 17.77777777777778)"/><use xlink:href="#y" transform="matrix(1,0,0,1,1120,1009) translate(28.02469135802469 44.44444444444444)"/><path d="M1180.58 428.48v-14.66h-5.4v-3.1h14.64v3.1h-5.4v14.66zM1192 412.35c.9-.7 1.74-1.18 2.8-1.56 1.03-.36 1.95-.5 3.04-.5 1.46-.06 2.72.4 3.83 1.36 1.02.96 1.52 2.18 1.47 3.58-.03 1.02-.25 1.9-.74 2.8-.7 1.2-1.4 2.17-2.34 3.2-1.1 1.2-2.53 2.62-4.35 4.28h8.17v2.96h-12.34v-2.76c2.22-2.22 3.86-3.95 4.9-5.17.9-.96 1.57-1.85 2.26-2.96.38-.68.58-1.32.62-2.1.03-.58-.16-1.1-.58-1.5-.46-.4-1-.6-1.6-.56-.88 0-1.64.17-2.46.5-1 .4-1.8.83-2.68 1.47z" stroke="#fff" stroke-opacity="0" fill="#d86613"/><path d="M1222.18 452.18h-64.36v-64.36h64.36zm-61.02-3.34h57.68v-57.68h-57.68z" stroke="#fff" stroke-opacity="0" fill="#d86613"/><path d="M1167.02 380h3.33v9.48h-3.33V380zM1177.47 380h3.33v9.48h-3.33V380zM1187.93 380h3.34v9.48h-3.34V380zM1198.4 380h3.33v9.48h-3.33V380zM1208.87 380h3.33v9.48h-3.33V380zM1167.02 450.52h3.33V460h-3.33v-9.48zM1177.47 450.52h3.33V460h-3.33v-9.48zM1187.93 450.52h3.34V460h-3.34v-9.48zM1198.4 450.52h3.33V460h-3.33v-9.48zM1208.87 450.52h3.33V460h-3.33v-9.48zM1220.52 397.42h9.48v3.33h-9.48v-3.33zM1220.52 407.87h9.48v3.33h-9.48v-3.33zM1220.52 418.33h9.48v3.34h-9.48v-3.34zM1220.52 428.8h9.48v3.33h-9.48v-3.33zM1220.52 439.25h9.48v3.33h-9.48v-3.33zM1150 397.42h9.48v3.33H1150v-3.33zM1150 407.87h9.48v3.33H1150v-3.33zM1150 418.33h9.48v3.34H1150v-3.34zM1150 428.8h9.48v3.33H1150v-3.33zM1150 439.25h9.48v3.33H1150v-3.33z" stroke="#fff" stroke-opacity="0" fill="#d86613"/><g><use xlink:href="#D" transform="matrix(1,0,0,1,1120,469) translate(23.703703703703695 17.77777777777778)"/><use xlink:href="#x" transform="matrix(1,0,0,1,1120,469) translate(79.25925925925927 17.77777777777778)"/><use xlink:href="#y" transform="matrix(1,0,0,1,1120,469) translate(28.02469135802469 44.44444444444444)"/></g><path d="M961 680h123c3.3 0 6 2.7 6 6v268c0 3.3 2.7 6 6 6h35.5" stroke="#5e5e5e" stroke-width="2" fill="none"/><path d="M961.03 681H960v-2h1.03z" fill="#5e5e5e"/><path d="M1146.76 960l-14.26 4.64v-9.28z" stroke="#5e5e5e" stroke-width="2" fill="#5e5e5e"/><path d="M900 619V426c0-3.3 2.7-6 6-6h225.5" stroke="#5e5e5e" stroke-width="2" fill="none"/><path d="M901 620h-2v-1.03h2z" fill="#5e5e5e"/><path d="M1146.76 420l-14.26 4.64v-9.28z" stroke="#5e5e5e" stroke-width="2" fill="#5e5e5e"/><path d="M1231 960h150.5" stroke="#5e5e5e" stroke-width="2" fill="none"/><path d="M1231.03 961H1230v-2h1.03z" fill="#5e5e5e"/><path d="M1396.76 960l-14.26 4.64v-9.28z" stroke="#5e5e5e" stroke-width="2" fill="#5e5e5e"/><path d="M1231 420h15c3.3 0 6 2.7 6 6v238c0 3.3 2.7 6 6 6h196c3.3 0 6 2.7 6 6v205.5" stroke="#5e5e5e" stroke-width="2" fill="none"/><path d="M1231.03 421H1230v-2h1.03z" fill="#5e5e5e"/><path d="M1460 896.76l-4.64-14.26h9.28z" stroke="#5e5e5e" stroke-width="2" fill="#5e5e5e"/><defs><path fill="#d86613" d="M205 0l-28-72H64L36 0H1l101-248h38L239 0h-34zm-38-99l-47-123c-12 45-31 82-46 123h93" id="E"/><path fill="#d86613" d="M84 4C-5 8 30-112 23-190h32v120c0 31 7 50 39 49 72-2 45-101 50-169h31l1 190h-30c-1-10 1-25-2-33-11 22-28 36-60 37" id="F"/><path fill="#d86613" d="M59-47c-2 24 18 29 38 22v24C64 9 27 4 27-40v-127H5v-23h24l9-43h21v43h35v23H59v120" id="G"/><path fill="#d86613" d="M100-194c62-1 85 37 85 99 1 63-27 99-86 99S16-35 15-95c0-66 28-99 85-99zM99-20c44 1 53-31 53-75 0-43-8-75-51-75s-53 32-53 75 10 74 51 75" id="H"/><g id="a"><use transform="matrix(0.05,0,0,0.05,0,0)" xlink:href="#E"/><use transform="matrix(0.05,0,0,0.05,12,0)" xlink:href="#F"/><use transform="matrix(0.05,0,0,0.05,22,0)" xlink:href="#G"/><use transform="matrix(0.05,0,0,0.05,27,0)" xlink:href="#H"/></g><path fill="#d86613" d="M185-189c-5-48-123-54-124 2 14 75 158 14 163 119 3 78-121 87-175 55-17-10-28-26-33-46l33-7c5 56 141 63 141-1 0-78-155-14-162-118-5-82 145-84 179-34 5 7 8 16 11 25" id="I"/><path fill="#d86613" d="M96-169c-40 0-48 33-48 73s9 75 48 75c24 0 41-14 43-38l32 2c-6 37-31 61-74 61-59 0-76-41-82-99-10-93 101-131 147-64 4 7 5 14 7 22l-32 3c-4-21-16-35-41-35" id="J"/><path fill="#d86613" d="M141-36C126-15 110 5 73 4 37 3 15-17 15-53c-1-64 63-63 125-63 3-35-9-54-41-54-24 1-41 7-42 31l-33-3c5-37 33-52 76-52 45 0 72 20 72 64v82c-1 20 7 32 28 27v20c-31 9-61-2-59-35zM48-53c0 20 12 33 32 33 41-3 63-29 60-74-43 2-92-5-92 41" id="K"/><path fill="#d86613" d="M24 0v-261h32V0H24" id="L"/><path fill="#d86613" d="M24-231v-30h32v30H24zM24 0v-190h32V0H24" id="M"/><path fill="#d86613" d="M117-194c89-4 53 116 60 194h-32v-121c0-31-8-49-39-48C34-167 62-67 57 0H25l-1-190h30c1 10-1 24 2 32 11-22 29-35 61-36" id="N"/><path fill="#d86613" d="M177-190C167-65 218 103 67 71c-23-6-38-20-44-43l32-5c15 47 100 32 89-28v-30C133-14 115 1 83 1 29 1 15-40 15-95c0-56 16-97 71-98 29-1 48 16 59 35 1-10 0-23 2-32h30zM94-22c36 0 50-32 50-73 0-42-14-75-50-75-39 0-46 34-46 75s6 73 46 73" id="O"/><g id="b"><use transform="matrix(0.05,0,0,0.05,0,0)" xlink:href="#I"/><use transform="matrix(0.05,0,0,0.05,12,0)" xlink:href="#J"/><use transform="matrix(0.05,0,0,0.05,21,0)" xlink:href="#K"/><use transform="matrix(0.05,0,0,0.05,31,0)" xlink:href="#L"/><use transform="matrix(0.05,0,0,0.05,34.95,0)" xlink:href="#M"/><use transform="matrix(0.05,0,0,0.05,38.900000000000006,0)" xlink:href="#N"/><use transform="matrix(0.05,0,0,0.05,48.900000000000006,0)" xlink:href="#O"/></g><path fill="#147eba" d="M209 0H11v-25l151-195H24v-28h176v25L50-27h159V0" id="P"/><path fill="#147eba" d="M140-251c81 0 123 46 123 126C263-46 219 4 140 4 59 4 17-45 17-125s42-126 123-126zm0 227c63 0 89-41 89-101s-29-99-89-99c-61 0-89 39-89 99S79-25 140-24" id="Q"/><path fill="#147eba" d="M190 0L58-211 59 0H30v-248h39L202-35l-2-213h31V0h-41" id="R"/><path fill="#147eba" d="M30 0v-248h187v28H63v79h144v27H63v87h162V0H30" id="S"/><g id="c"><use transform="matrix(0.05,0,0,0.05,0,0)" xlink:href="#P"/><use transform="matrix(0.05,0,0,0.05,10.950000000000001,0)" xlink:href="#Q"/><use transform="matrix(0.05,0,0,0.05,24.950000000000003,0)" xlink:href="#R"/><use transform="matrix(0.05,0,0,0.05,37.900000000000006,0)" xlink:href="#S"/></g><path fill="#147eba" d="M205 0l-28-72H64L36 0H1l101-248h38L239 0h-34zm-38-99l-47-123c-12 45-31 82-46 123h93" id="T"/><use transform="matrix(0.05,0,0,0.05,0,0)" xlink:href="#T" id="d"/><path fill="#248814" d="M210-169c-67 3-38 105-44 169h-31v-121c0-29-5-50-35-48C34-165 62-65 56 0H25l-1-190h30c1 10-1 24 2 32 10-44 99-50 107 0 11-21 27-35 58-36 85-2 47 119 55 194h-31v-121c0-29-5-49-35-48" id="U"/><path fill="#248814" d="M141-36C126-15 110 5 73 4 37 3 15-17 15-53c-1-64 63-63 125-63 3-35-9-54-41-54-24 1-41 7-42 31l-33-3c5-37 33-52 76-52 45 0 72 20 72 64v82c-1 20 7 32 28 27v20c-31 9-61-2-59-35zM48-53c0 20 12 33 32 33 41-3 63-29 60-74-43 2-92-5-92 41" id="V"/><path fill="#248814" d="M24-231v-30h32v30H24zM24 0v-190h32V0H24" id="W"/><path fill="#248814" d="M117-194c89-4 53 116 60 194h-32v-121c0-31-8-49-39-48C34-167 62-67 57 0H25l-1-190h30c1 10-1 24 2 32 11-22 29-35 61-36" id="X"/><g id="e"><use transform="matrix(0.05,0,0,0.05,0,0)" xlink:href="#U"/><use transform="matrix(0.05,0,0,0.05,14.950000000000001,0)" xlink:href="#V"/><use transform="matrix(0.05,0,0,0.05,24.950000000000003,0)" xlink:href="#W"/><use transform="matrix(0.05,0,0,0.05,28.900000000000002,0)" xlink:href="#X"/></g><path fill="#248814" d="M16-82v-28h88v28H16" id="Y"/><use transform="matrix(0.05,0,0,0.05,0,0)" xlink:href="#Y" id="f"/><path fill="#248814" d="M137 0h-34L2-248h35l83 218 83-218h36" id="Z"/><path fill="#248814" d="M30-248c87 1 191-15 191 75 0 78-77 80-158 76V0H30v-248zm33 125c57 0 124 11 124-50 0-59-68-47-124-48v98" id="aa"/><path fill="#248814" d="M212-179c-10-28-35-45-73-45-59 0-87 40-87 99 0 60 29 101 89 101 43 0 62-24 78-52l27 14C228-24 195 4 139 4 59 4 22-46 18-125c-6-104 99-153 187-111 19 9 31 26 39 46" id="ab"/><g id="g"><use transform="matrix(0.05,0,0,0.05,0,0)" xlink:href="#Z"/><use transform="matrix(0.05,0,0,0.05,12,0)" xlink:href="#aa"/><use transform="matrix(0.05,0,0,0.05,24,0)" xlink:href="#ab"/></g><path fill="#248814" d="M27 0v-27h64v-190l-56 39v-29l58-41h29v221h61V0H27" id="ac"/><path fill="#248814" d="M101-251c68 0 85 55 85 127S166 4 100 4C33 4 14-52 14-124c0-73 17-127 87-127zm-1 229c47 0 54-49 54-102s-4-102-53-102c-51 0-55 48-55 102 0 53 5 102 54 102" id="ad"/><path fill="#248814" d="M33 0v-38h34V0H33" id="ae"/><path fill="#248814" d="M0 4l72-265h28L28 4H0" id="af"/><path fill="#248814" d="M110-160c48 1 74 30 74 79 0 53-28 85-80 85-65 0-83-55-86-122-5-90 50-162 133-122 14 7 22 21 27 39l-31 6c-5-40-67-38-82-6-9 19-15 44-15 74 11-20 30-34 60-33zm-7 138c34 0 49-23 49-58s-16-56-50-56c-29 0-50 16-49 49 1 36 15 65 50 65" id="ag"/><g id="h"><use transform="matrix(0.05,0,0,0.05,0,0)" xlink:href="#ac"/><use transform="matrix(0.05,0,0,0.05,10,0)" xlink:href="#ad"/><use transform="matrix(0.05,0,0,0.05,20,0)" xlink:href="#ae"/><use transform="matrix(0.05,0,0,0.05,25,0)" xlink:href="#ac"/><use transform="matrix(0.05,0,0,0.05,35,0)" xlink:href="#ae"/><use transform="matrix(0.05,0,0,0.05,40,0)" xlink:href="#ad"/><use transform="matrix(0.05,0,0,0.05,50,0)" xlink:href="#ae"/><use transform="matrix(0.05,0,0,0.05,55,0)" xlink:href="#ad"/><use transform="matrix(0.05,0,0,0.05,65,0)" xlink:href="#af"/><use transform="matrix(0.05,0,0,0.05,70,0)" xlink:href="#ac"/><use transform="matrix(0.05,0,0,0.05,80,0)" xlink:href="#ag"/></g><path fill="#248814" d="M84 4C-5 8 30-112 23-190h32v120c0 31 7 50 39 49 72-2 45-101 50-169h31l1 190h-30c-1-10 1-25-2-33-11 22-28 36-60 37" id="ah"/><path fill="#248814" d="M115-194c53 0 69 39 70 98 0 66-23 100-70 100C84 3 66-7 56-30L54 0H23l1-261h32v101c10-23 28-34 59-34zm-8 174c40 0 45-34 45-75 0-40-5-75-45-74-42 0-51 32-51 76 0 43 10 73 51 73" id="ai"/><path fill="#248814" d="M24 0v-261h32V0H24" id="aj"/><path fill="#248814" d="M96-169c-40 0-48 33-48 73s9 75 48 75c24 0 41-14 43-38l32 2c-6 37-31 61-74 61-59 0-76-41-82-99-10-93 101-131 147-64 4 7 5 14 7 22l-32 3c-4-21-16-35-41-35" id="ak"/><g id="i"><use transform="matrix(0.05,0,0,0.05,0,0)" xlink:href="#aa"/><use transform="matrix(0.05,0,0,0.05,12,0)" xlink:href="#ah"/><use transform="matrix(0.05,0,0,0.05,22,0)" xlink:href="#ai"/><use transform="matrix(0.05,0,0,0.05,32,0)" xlink:href="#aj"/><use transform="matrix(0.05,0,0,0.05,35.95,0)" xlink:href="#W"/><use transform="matrix(0.05,0,0,0.05,39.900000000000006,0)" xlink:href="#ak"/></g><path fill="#248814" d="M185-189c-5-48-123-54-124 2 14 75 158 14 163 119 3 78-121 87-175 55-17-10-28-26-33-46l33-7c5 56 141 63 141-1 0-78-155-14-162-118-5-82 145-84 179-34 5 7 8 16 11 25" id="al"/><path fill="#248814" d="M100-194c63 0 86 42 84 106H49c0 40 14 67 53 68 26 1 43-12 49-29l28 8c-11 28-37 45-77 45C44 4 14-33 15-96c1-61 26-98 85-98zm52 81c6-60-76-77-97-28-3 7-6 17-6 28h103" id="am"/><path fill="#248814" d="M59-47c-2 24 18 29 38 22v24C64 9 27 4 27-40v-127H5v-23h24l9-43h21v43h35v23H59v120" id="an"/><g id="j"><use transform="matrix(0.05,0,0,0.05,0,0)" xlink:href="#al"/><use transform="matrix(0.05,0,0,0.05,12,0)" xlink:href="#ah"/><use transform="matrix(0.05,0,0,0.05,22,0)" xlink:href="#ai"/><use transform="matrix(0.05,0,0,0.05,32,0)" xlink:href="#X"/><use transform="matrix(0.05,0,0,0.05,42,0)" xlink:href="#am"/><use transform="matrix(0.05,0,0,0.05,52,0)" xlink:href="#an"/></g><path fill="#248814" d="M101-251c82-7 93 87 43 132L82-64C71-53 59-42 53-27h129V0H18c2-99 128-94 128-182 0-28-16-43-45-43s-46 15-49 41l-32-3c6-41 34-60 81-64" id="ao"/><path fill="#248814" d="M155-56V0h-30v-56H8v-25l114-167h33v167h35v25h-35zm-30-156c-27 46-58 90-88 131h88v-131" id="ap"/><g id="k"><use transform="matrix(0.05,0,0,0.05,0,0)" xlink:href="#ac"/><use transform="matrix(0.05,0,0,0.05,10,0)" xlink:href="#ad"/><use transform="matrix(0.05,0,0,0.05,20,0)" xlink:href="#ae"/><use transform="matrix(0.05,0,0,0.05,25,0)" xlink:href="#ac"/><use transform="matrix(0.05,0,0,0.05,35,0)" xlink:href="#ae"/><use transform="matrix(0.05,0,0,0.05,40,0)" xlink:href="#ac"/><use transform="matrix(0.05,0,0,0.05,50,0)" xlink:href="#ae"/><use transform="matrix(0.05,0,0,0.05,55,0)" xlink:href="#ad"/><use transform="matrix(0.05,0,0,0.05,65,0)" xlink:href="#af"/><use transform="matrix(0.05,0,0,0.05,70,0)" xlink:href="#ao"/><use transform="matrix(0.05,0,0,0.05,80,0)" xlink:href="#ap"/></g><g id="l"><use transform="matrix(0.05,0,0,0.05,0,0)" xlink:href="#al"/><use transform="matrix(0.05,0,0,0.05,12,0)" xlink:href="#ah"/><use transform="matrix(0.05,0,0,0.05,22,0)" xlink:href="#ai"/><use transform="matrix(0.05,0,0,0.05,32,0)" xlink:href="#X"/><use transform="matrix(0.05,0,0,0.05,42,0)" xlink:href="#am"/><use transform="matrix(0.05,0,0,0.05,52,0)" xlink:href="#an"/></g><path fill="#248814" d="M126-127c33 6 58 20 58 59 0 88-139 92-164 29-3-8-5-16-6-25l32-3c6 27 21 44 54 44 32 0 52-15 52-46 0-38-36-46-79-43v-28c39 1 72-4 72-42 0-27-17-43-46-43-28 0-47 15-49 41l-32-3c6-42 35-63 81-64 48-1 79 21 79 65 0 36-21 52-52 59" id="aq"/><g id="m"><use transform="matrix(0.05,0,0,0.05,0,0)" xlink:href="#ac"/><use transform="matrix(0.05,0,0,0.05,10,0)" xlink:href="#ad"/><use transform="matrix(0.05,0,0,0.05,20,0)" xlink:href="#ae"/><use transform="matrix(0.05,0,0,0.05,25,0)" xlink:href="#ac"/><use transform="matrix(0.05,0,0,0.05,35,0)" xlink:href="#ae"/><use transform="matrix(0.05,0,0,0.05,40,0)" xlink:href="#aq"/><use transform="matrix(0.05,0,0,0.05,50,0)" xlink:href="#ae"/><use transform="matrix(0.05,0,0,0.05,55,0)" xlink:href="#ad"/><use transform="matrix(0.05,0,0,0.05,65,0)" xlink:href="#af"/><use transform="matrix(0.05,0,0,0.05,70,0)" xlink:href="#ao"/><use transform="matrix(0.05,0,0,0.05,80,0)" xlink:href="#ap"/></g><path fill="#147eba" d="M30-248c87 1 191-15 191 75 0 78-77 80-158 76V0H30v-248zm33 125c57 0 124 11 124-50 0-59-68-47-124-48v98" id="ar"/><path fill="#147eba" d="M114-163C36-179 61-72 57 0H25l-1-190h30c1 12-1 29 2 39 6-27 23-49 58-41v29" id="as"/><path fill="#147eba" d="M24-231v-30h32v30H24zM24 0v-190h32V0H24" id="at"/><path fill="#147eba" d="M108 0H70L1-190h34L89-25l56-165h34" id="au"/><path fill="#147eba" d="M141-36C126-15 110 5 73 4 37 3 15-17 15-53c-1-64 63-63 125-63 3-35-9-54-41-54-24 1-41 7-42 31l-33-3c5-37 33-52 76-52 45 0 72 20 72 64v82c-1 20 7 32 28 27v20c-31 9-61-2-59-35zM48-53c0 20 12 33 32 33 41-3 63-29 60-74-43 2-92-5-92 41" id="av"/><path fill="#147eba" d="M59-47c-2 24 18 29 38 22v24C64 9 27 4 27-40v-127H5v-23h24l9-43h21v43h35v23H59v120" id="aw"/><path fill="#147eba" d="M100-194c63 0 86 42 84 106H49c0 40 14 67 53 68 26 1 43-12 49-29l28 8c-11 28-37 45-77 45C44 4 14-33 15-96c1-61 26-98 85-98zm52 81c6-60-76-77-97-28-3 7-6 17-6 28h103" id="ax"/><g id="n"><use transform="matrix(0.05,0,0,0.05,0,0)" xlink:href="#ar"/><use transform="matrix(0.05,0,0,0.05,12,0)" xlink:href="#as"/><use transform="matrix(0.05,0,0,0.05,17.95,0)" xlink:href="#at"/><use transform="matrix(0.05,0,0,0.05,21.9,0)" xlink:href="#au"/><use transform="matrix(0.05,0,0,0.05,30.899999999999995,0)" xlink:href="#av"/><use transform="matrix(0.05,0,0,0.05,40.9,0)" xlink:href="#aw"/><use transform="matrix(0.05,0,0,0.05,45.9,0)" xlink:href="#ax"/></g><path fill="#147eba" d="M185-189c-5-48-123-54-124 2 14 75 158 14 163 119 3 78-121 87-175 55-17-10-28-26-33-46l33-7c5 56 141 63 141-1 0-78-155-14-162-118-5-82 145-84 179-34 5 7 8 16 11 25" id="ay"/><path fill="#147eba" d="M84 4C-5 8 30-112 23-190h32v120c0 31 7 50 39 49 72-2 45-101 50-169h31l1 190h-30c-1-10 1-25-2-33-11 22-28 36-60 37" id="az"/><path fill="#147eba" d="M115-194c53 0 69 39 70 98 0 66-23 100-70 100C84 3 66-7 56-30L54 0H23l1-261h32v101c10-23 28-34 59-34zm-8 174c40 0 45-34 45-75 0-40-5-75-45-74-42 0-51 32-51 76 0 43 10 73 51 73" id="aA"/><path fill="#147eba" d="M117-194c89-4 53 116 60 194h-32v-121c0-31-8-49-39-48C34-167 62-67 57 0H25l-1-190h30c1 10-1 24 2 32 11-22 29-35 61-36" id="aB"/><g id="o"><use transform="matrix(0.05,0,0,0.05,0,0)" xlink:href="#ay"/><use transform="matrix(0.05,0,0,0.05,12,0)" xlink:href="#az"/><use transform="matrix(0.05,0,0,0.05,22,0)" xlink:href="#aA"/><use transform="matrix(0.05,0,0,0.05,32,0)" xlink:href="#aB"/><use transform="matrix(0.05,0,0,0.05,42,0)" xlink:href="#ax"/><use transform="matrix(0.05,0,0,0.05,52,0)" xlink:href="#aw"/></g><path fill="#147eba" d="M27 0v-27h64v-190l-56 39v-29l58-41h29v221h61V0H27" id="aC"/><path fill="#147eba" d="M101-251c68 0 85 55 85 127S166 4 100 4C33 4 14-52 14-124c0-73 17-127 87-127zm-1 229c47 0 54-49 54-102s-4-102-53-102c-51 0-55 48-55 102 0 53 5 102 54 102" id="aD"/><path fill="#147eba" d="M33 0v-38h34V0H33" id="aE"/><path fill="#147eba" d="M0 4l72-265h28L28 4H0" id="aF"/><path fill="#147eba" d="M101-251c82-7 93 87 43 132L82-64C71-53 59-42 53-27h129V0H18c2-99 128-94 128-182 0-28-16-43-45-43s-46 15-49 41l-32-3c6-41 34-60 81-64" id="aG"/><path fill="#147eba" d="M155-56V0h-30v-56H8v-25l114-167h33v167h35v25h-35zm-30-156c-27 46-58 90-88 131h88v-131" id="aH"/><g id="p"><use transform="matrix(0.05,0,0,0.05,0,0)" xlink:href="#aC"/><use transform="matrix(0.05,0,0,0.05,10,0)" xlink:href="#aD"/><use transform="matrix(0.05,0,0,0.05,20,0)" xlink:href="#aE"/><use transform="matrix(0.05,0,0,0.05,25,0)" xlink:href="#aC"/><use transform="matrix(0.05,0,0,0.05,35,0)" xlink:href="#aE"/><use transform="matrix(0.05,0,0,0.05,40,0)" xlink:href="#aC"/><use transform="matrix(0.05,0,0,0.05,48.65,0)" xlink:href="#aC"/><use transform="matrix(0.05,0,0,0.05,58.650000000000006,0)" xlink:href="#aE"/><use transform="matrix(0.05,0,0,0.05,63.650000000000006,0)" xlink:href="#aD"/><use transform="matrix(0.05,0,0,0.05,73.65,0)" xlink:href="#aF"/><use transform="matrix(0.05,0,0,0.05,78.65,0)" xlink:href="#aG"/><use transform="matrix(0.05,0,0,0.05,88.65,0)" xlink:href="#aH"/></g><path fill="#147eba" d="M126-127c33 6 58 20 58 59 0 88-139 92-164 29-3-8-5-16-6-25l32-3c6 27 21 44 54 44 32 0 52-15 52-46 0-38-36-46-79-43v-28c39 1 72-4 72-42 0-27-17-43-46-43-28 0-47 15-49 41l-32-3c6-42 35-63 81-64 48-1 79 21 79 65 0 36-21 52-52 59" id="aI"/><g id="q"><use transform="matrix(0.05,0,0,0.05,0,0)" xlink:href="#aC"/><use transform="matrix(0.05,0,0,0.05,10,0)" xlink:href="#aD"/><use transform="matrix(0.05,0,0,0.05,20,0)" xlink:href="#aE"/><use transform="matrix(0.05,0,0,0.05,25,0)" xlink:href="#aC"/><use transform="matrix(0.05,0,0,0.05,35,0)" xlink:href="#aE"/><use transform="matrix(0.05,0,0,0.05,40,0)" xlink:href="#aC"/><use transform="matrix(0.05,0,0,0.05,50,0)" xlink:href="#aI"/><use transform="matrix(0.05,0,0,0.05,60,0)" xlink:href="#aE"/><use transform="matrix(0.05,0,0,0.05,65,0)" xlink:href="#aD"/><use transform="matrix(0.05,0,0,0.05,75,0)" xlink:href="#aF"/><use transform="matrix(0.05,0,0,0.05,80,0)" xlink:href="#aG"/><use transform="matrix(0.05,0,0,0.05,90,0)" xlink:href="#aH"/></g><path fill="#333" d="M33 0v-248h34V0H33" id="aJ"/><path fill="#333" d="M117-194c89-4 53 116 60 194h-32v-121c0-31-8-49-39-48C34-167 62-67 57 0H25l-1-190h30c1 10-1 24 2 32 11-22 29-35 61-36" id="aK"/><path fill="#333" d="M59-47c-2 24 18 29 38 22v24C64 9 27 4 27-40v-127H5v-23h24l9-43h21v43h35v23H59v120" id="aL"/><path fill="#333" d="M100-194c63 0 86 42 84 106H49c0 40 14 67 53 68 26 1 43-12 49-29l28 8c-11 28-37 45-77 45C44 4 14-33 15-96c1-61 26-98 85-98zm52 81c6-60-76-77-97-28-3 7-6 17-6 28h103" id="aM"/><path fill="#333" d="M114-163C36-179 61-72 57 0H25l-1-190h30c1 12-1 29 2 39 6-27 23-49 58-41v29" id="aN"/><g id="r"><use transform="matrix(0.06172839506172839,0,0,0.06172839506172839,0,0)" xlink:href="#aJ"/><use transform="matrix(0.06172839506172839,0,0,0.06172839506172839,6.172839506172839,0)" xlink:href="#aK"/><use transform="matrix(0.06172839506172839,0,0,0.06172839506172839,18.51851851851852,0)" xlink:href="#aL"/><use transform="matrix(0.06172839506172839,0,0,0.06172839506172839,24.691358024691358,0)" xlink:href="#aM"/><use transform="matrix(0.06172839506172839,0,0,0.06172839506172839,37.03703703703704,0)" xlink:href="#aN"/><use transform="matrix(0.06172839506172839,0,0,0.06172839506172839,44.382716049382715,0)" xlink:href="#aK"/><use transform="matrix(0.06172839506172839,0,0,0.06172839506172839,56.72839506172839,0)" xlink:href="#aM"/><use transform="matrix(0.06172839506172839,0,0,0.06172839506172839,69.07407407407408,0)" xlink:href="#aL"/></g><path fill="#333" d="M177-190C167-65 218 103 67 71c-23-6-38-20-44-43l32-5c15 47 100 32 89-28v-30C133-14 115 1 83 1 29 1 15-40 15-95c0-56 16-97 71-98 29-1 48 16 59 35 1-10 0-23 2-32h30zM94-22c36 0 50-32 50-73 0-42-14-75-50-75-39 0-46 34-46 75s6 73 46 73" id="aO"/><path fill="#333" d="M141-36C126-15 110 5 73 4 37 3 15-17 15-53c-1-64 63-63 125-63 3-35-9-54-41-54-24 1-41 7-42 31l-33-3c5-37 33-52 76-52 45 0 72 20 72 64v82c-1 20 7 32 28 27v20c-31 9-61-2-59-35zM48-53c0 20 12 33 32 33 41-3 63-29 60-74-43 2-92-5-92 41" id="aP"/><path fill="#333" d="M206 0h-36l-40-164L89 0H53L-1-190h32L70-26l43-164h34l41 164 42-164h31" id="aQ"/><path fill="#333" d="M179-190L93 31C79 59 56 82 12 73V49c39 6 53-20 64-50L1-190h34L92-34l54-156h33" id="aR"/><g id="s"><use transform="matrix(0.06172839506172839,0,0,0.06172839506172839,0,0)" xlink:href="#aO"/><use transform="matrix(0.06172839506172839,0,0,0.06172839506172839,12.345679012345679,0)" xlink:href="#aP"/><use transform="matrix(0.06172839506172839,0,0,0.06172839506172839,24.691358024691358,0)" xlink:href="#aL"/><use transform="matrix(0.06172839506172839,0,0,0.06172839506172839,30.864197530864196,0)" xlink:href="#aM"/><use transform="matrix(0.06172839506172839,0,0,0.06172839506172839,43.20987654320987,0)" xlink:href="#aQ"/><use transform="matrix(0.06172839506172839,0,0,0.06172839506172839,59.197530864197525,0)" xlink:href="#aP"/><use transform="matrix(0.06172839506172839,0,0,0.06172839506172839,71.5432098765432,0)" xlink:href="#aR"/></g><path fill="#333" d="M30 0v-248h187v28H63v79h144v27H63v87h162V0H30" id="aS"/><path fill="#333" d="M24 0v-261h32V0H24" id="aT"/><path fill="#333" d="M135-143c-3-34-86-38-87 0 15 53 115 12 119 90S17 21 10-45l28-5c4 36 97 45 98 0-10-56-113-15-118-90-4-57 82-63 122-42 12 7 21 19 24 35" id="aU"/><path fill="#333" d="M24-231v-30h32v30H24zM24 0v-190h32V0H24" id="aV"/><path fill="#333" d="M96-169c-40 0-48 33-48 73s9 75 48 75c24 0 41-14 43-38l32 2c-6 37-31 61-74 61-59 0-76-41-82-99-10-93 101-131 147-64 4 7 5 14 7 22l-32 3c-4-21-16-35-41-35" id="aW"/><g id="t"><use transform="matrix(0.06172839506172839,0,0,0.06172839506172839,0,0)" xlink:href="#aS"/><use transform="matrix(0.06172839506172839,0,0,0.06172839506172839,14.814814814814813,0)" xlink:href="#aT"/><use transform="matrix(0.06172839506172839,0,0,0.06172839506172839,19.691358024691354,0)" xlink:href="#aP"/><use transform="matrix(0.06172839506172839,0,0,0.06172839506172839,32.03703703703703,0)" xlink:href="#aU"/><use transform="matrix(0.06172839506172839,0,0,0.06172839506172839,43.14814814814814,0)" xlink:href="#aL"/><use transform="matrix(0.06172839506172839,0,0,0.06172839506172839,49.32098765432098,0)" xlink:href="#aV"/><use transform="matrix(0.06172839506172839,0,0,0.06172839506172839,54.197530864197525,0)" xlink:href="#aW"/></g><path fill="#333" d="M30 0v-248h33v221h125V0H30" id="aX"/><path fill="#333" d="M100-194c62-1 85 37 85 99 1 63-27 99-86 99S16-35 15-95c0-66 28-99 85-99zM99-20c44 1 53-31 53-75 0-43-8-75-51-75s-53 32-53 75 10 74 51 75" id="aY"/><path fill="#333" d="M85-194c31 0 48 13 60 33l-1-100h32l1 261h-30c-2-10 0-23-3-31C134-8 116 4 85 4 32 4 16-35 15-94c0-66 23-100 70-100zm9 24c-40 0-46 34-46 75 0 40 6 74 45 74 42 0 51-32 51-76 0-42-9-74-50-73" id="aZ"/><g id="u"><use transform="matrix(0.06172839506172839,0,0,0.06172839506172839,0,0)" xlink:href="#aX"/><use transform="matrix(0.06172839506172839,0,0,0.06172839506172839,12.345679012345679,0)" xlink:href="#aY"/><use transform="matrix(0.06172839506172839,0,0,0.06172839506172839,24.691358024691358,0)" xlink:href="#aP"/><use transform="matrix(0.06172839506172839,0,0,0.06172839506172839,37.03703703703704,0)" xlink:href="#aZ"/></g><path fill="#333" d="M160-131c35 5 61 23 61 61C221 17 115-2 30 0v-248c76 3 177-17 177 60 0 33-19 50-47 57zm-97-11c50-1 110 9 110-42 0-47-63-36-110-37v79zm0 115c55-2 124 14 124-45 0-56-70-42-124-44v89" id="ba"/><g id="v"><use transform="matrix(0.06172839506172839,0,0,0.06172839506172839,0,0)" xlink:href="#ba"/><use transform="matrix(0.06172839506172839,0,0,0.06172839506172839,14.814814814814813,0)" xlink:href="#aP"/><use transform="matrix(0.06172839506172839,0,0,0.06172839506172839,27.160493827160494,0)" xlink:href="#aT"/><use transform="matrix(0.06172839506172839,0,0,0.06172839506172839,32.03703703703704,0)" xlink:href="#aP"/><use transform="matrix(0.06172839506172839,0,0,0.06172839506172839,44.382716049382715,0)" xlink:href="#aK"/><use transform="matrix(0.06172839506172839,0,0,0.06172839506172839,56.72839506172839,0)" xlink:href="#aW"/><use transform="matrix(0.06172839506172839,0,0,0.06172839506172839,67.8395061728395,0)" xlink:href="#aV"/><use transform="matrix(0.06172839506172839,0,0,0.06172839506172839,72.71604938271605,0)" xlink:href="#aK"/><use transform="matrix(0.06172839506172839,0,0,0.06172839506172839,85.06172839506173,0)" xlink:href="#aO"/></g><path fill="#333" d="M63-220v92h138v28H63V0H30v-248h175v28H63" id="bb"/><g id="w"><use transform="matrix(0.06172839506172839,0,0,0.06172839506172839,0,0)" xlink:href="#bb"/><use transform="matrix(0.06172839506172839,0,0,0.06172839506172839,13.518518518518517,0)" xlink:href="#aN"/><use transform="matrix(0.06172839506172839,0,0,0.06172839506172839,20.864197530864196,0)" xlink:href="#aY"/><use transform="matrix(0.06172839506172839,0,0,0.06172839506172839,33.20987654320987,0)" xlink:href="#aK"/><use transform="matrix(0.06172839506172839,0,0,0.06172839506172839,45.55555555555555,0)" xlink:href="#aL"/></g><g id="x"><use transform="matrix(0.06172839506172839,0,0,0.06172839506172839,0,0)" xlink:href="#aM"/><use transform="matrix(0.06172839506172839,0,0,0.06172839506172839,12.345679012345679,0)" xlink:href="#aK"/><use transform="matrix(0.06172839506172839,0,0,0.06172839506172839,24.691358024691358,0)" xlink:href="#aZ"/></g><g id="y"><use transform="matrix(0.06172839506172839,0,0,0.06172839506172839,0,0)" xlink:href="#aJ"/><use transform="matrix(0.06172839506172839,0,0,0.06172839506172839,6.172839506172839,0)" xlink:href="#aK"/><use transform="matrix(0.06172839506172839,0,0,0.06172839506172839,18.51851851851852,0)" xlink:href="#aU"/><use transform="matrix(0.06172839506172839,0,0,0.06172839506172839,29.62962962962963,0)" xlink:href="#aL"/><use transform="matrix(0.06172839506172839,0,0,0.06172839506172839,35.80246913580247,0)" xlink:href="#aP"/><use transform="matrix(0.06172839506172839,0,0,0.06172839506172839,48.148148148148145,0)" xlink:href="#aK"/><use transform="matrix(0.06172839506172839,0,0,0.06172839506172839,60.49382716049382,0)" xlink:href="#aW"/><use transform="matrix(0.06172839506172839,0,0,0.06172839506172839,71.60493827160494,0)" xlink:href="#aM"/></g><path fill="#333" d="M205 0l-28-72H64L36 0H1l101-248h38L239 0h-34zm-38-99l-47-123c-12 45-31 82-46 123h93" id="bc"/><path fill="#333" d="M210-169c-67 3-38 105-44 169h-31v-121c0-29-5-50-35-48C34-165 62-65 56 0H25l-1-190h30c1 10-1 24 2 32 10-44 99-50 107 0 11-21 27-35 58-36 85-2 47 119 55 194h-31v-121c0-29-5-49-35-48" id="bd"/><path fill="#333" d="M9 0v-24l116-142H16v-24h144v24L44-24h123V0H9" id="be"/><g id="z"><use transform="matrix(0.06172839506172839,0,0,0.06172839506172839,0,0)" xlink:href="#bc"/><use transform="matrix(0.06172839506172839,0,0,0.06172839506172839,14.814814814814813,0)" xlink:href="#bd"/><use transform="matrix(0.06172839506172839,0,0,0.06172839506172839,33.2716049382716,0)" xlink:href="#aP"/><use transform="matrix(0.06172839506172839,0,0,0.06172839506172839,45.61728395061728,0)" xlink:href="#be"/><use transform="matrix(0.06172839506172839,0,0,0.06172839506172839,56.72839506172839,0)" xlink:href="#aY"/><use transform="matrix(0.06172839506172839,0,0,0.06172839506172839,69.07407407407408,0)" xlink:href="#aK"/></g><path fill="#333" d="M233-177c-1 41-23 64-60 70L243 0h-38l-65-103H63V0H30v-248c88 3 205-21 203 71zM63-129c60-2 137 13 137-47 0-61-80-42-137-45v92" id="bf"/><path fill="#333" d="M30-248c118-7 216 8 213 122C240-48 200 0 122 0H30v-248zM63-27c89 8 146-16 146-99s-60-101-146-95v194" id="bg"/><path fill="#333" d="M185-189c-5-48-123-54-124 2 14 75 158 14 163 119 3 78-121 87-175 55-17-10-28-26-33-46l33-7c5 56 141 63 141-1 0-78-155-14-162-118-5-82 145-84 179-34 5 7 8 16 11 25" id="bh"/><g id="A"><use transform="matrix(0.06172839506172839,0,0,0.06172839506172839,0,0)" xlink:href="#bf"/><use transform="matrix(0.06172839506172839,0,0,0.06172839506172839,15.987654320987653,0)" xlink:href="#bg"/><use transform="matrix(0.06172839506172839,0,0,0.06172839506172839,31.975308641975307,0)" xlink:href="#bh"/></g><path fill="#333" d="M240 0l2-218c-23 76-54 145-80 218h-23L58-218 59 0H30v-248h44l77 211c21-75 51-140 76-211h43V0h-30" id="bi"/><path fill="#333" d="M140-251c81 0 123 46 123 126C263-53 228-8 163 1c7 30 30 48 69 40v23c-55 16-95-15-103-61C56-3 17-48 17-125c0-80 42-126 123-126zm0 227c63 0 89-41 89-101s-29-99-89-99c-61 0-89 39-89 99S79-25 140-24" id="bj"/><g id="B"><use transform="matrix(0.06172839506172839,0,0,0.06172839506172839,0,0)" xlink:href="#bi"/><use transform="matrix(0.06172839506172839,0,0,0.06172839506172839,18.456790123456788,0)" xlink:href="#aR"/><use transform="matrix(0.06172839506172839,0,0,0.06172839506172839,29.5679012345679,0)" xlink:href="#bh"/><use transform="matrix(0.06172839506172839,0,0,0.06172839506172839,44.38271604938271,0)" xlink:href="#bj"/><use transform="matrix(0.06172839506172839,0,0,0.06172839506172839,61.66666666666666,0)" xlink:href="#aX"/></g><path fill="#147eba" d="M160-131c35 5 61 23 61 61C221 17 115-2 30 0v-248c76 3 177-17 177 60 0 33-19 50-47 57zm-97-11c50-1 110 9 110-42 0-47-63-36-110-37v79zm0 115c55-2 124 14 124-45 0-56-70-42-124-44v89" id="bk"/><use transform="matrix(0.05,0,0,0.05,0,0)" xlink:href="#bk" id="C"/><path fill="#333" d="M143 0L79-87 56-68V0H24v-261h32v163l83-92h37l-77 82L181 0h-38" id="bl"/><g id="D"><use transform="matrix(0.06172839506172839,0,0,0.06172839506172839,0,0)" xlink:href="#ba"/><use transform="matrix(0.06172839506172839,0,0,0.06172839506172839,14.814814814814813,0)" xlink:href="#aP"/><use transform="matrix(0.06172839506172839,0,0,0.06172839506172839,27.160493827160494,0)" xlink:href="#aW"/><use transform="matrix(0.06172839506172839,0,0,0.06172839506172839,38.27160493827161,0)" xlink:href="#bl"/></g></defs></g></svg>